<svg xmlns="http://www.w3.org/2000/svg" width="189" height="48" viewBox="0 0 189 48" fill="none"><circle cx="23.8" cy="23.8" r="22.9186" stroke="#061717" stroke-width="1.76297"></circle><path d="M27.3423 17.8564C27.3423 18.8853 27.1989 19.8392 26.9253 20.7051C22.5726 20.7707 19.7061 22.7744 18.6899 26.0146C18.649 26.015 18.608 26.0176 18.5669 26.0176C12.9137 26.0176 9.69678 22.8 9.69678 17.8564C9.69691 12.913 12.9138 9.69629 18.5669 9.69629C24.0778 9.69646 27.3422 12.9132 27.3423 17.8564ZM22.6108 17.8564C22.6108 14.7109 21.7833 13.9542 18.5669 13.9541C15.3501 13.9541 14.4273 14.7108 14.4272 17.8564C14.4272 21.0024 15.35 21.7598 18.5669 21.7598C21.7834 21.7597 22.6108 21.0022 22.6108 17.8564ZM35.9224 28.8623C35.9222 33.8056 32.658 37.0224 27.147 37.0225C21.494 37.0225 18.2771 33.8056 18.2769 28.8623C18.2769 27.8338 18.4185 26.8803 18.6899 26.0146C22.9864 25.9769 25.8941 23.9683 26.9253 20.7051C26.9988 20.704 27.0727 20.7012 27.147 20.7012C32.6582 20.7012 35.9224 23.9187 35.9224 28.8623ZM31.1919 28.8623C31.1919 25.7164 30.3638 24.959 27.147 24.959C23.9301 24.959 23.0073 25.7164 23.0073 28.8623C23.0074 32.0078 23.9303 32.7646 27.147 32.7646C30.3637 32.7646 31.1918 32.0078 31.1919 28.8623Z" fill="#061717"></path><path d="M69.6001 34.248C66.3788 34.248 63.7868 33.1387 61.8241 30.92C59.8614 28.7014 58.8801 25.8427 58.8801 22.344C58.8801 18.888 59.8508 16.04 61.7921 13.8C63.7548 11.5387 66.4001 10.408 69.7281 10.408C72.3308 10.408 74.4321 11.08 76.0321 12.424C77.6321 13.768 78.5921 15.528 78.9121 17.704H76.0961C75.8188 16.2534 75.1148 15.0907 73.9841 14.216C72.8748 13.3414 71.4348 12.904 69.6641 12.904C67.2108 12.904 65.2908 13.7894 63.9041 15.56C62.5174 17.3094 61.8241 19.5707 61.8241 22.344C61.8241 25.16 62.5388 27.432 63.9681 29.16C65.4188 30.8667 67.3281 31.72 69.6961 31.72C71.7441 31.72 73.3228 31.1227 74.4321 29.928C75.5628 28.7334 76.2028 27.2294 76.3521 25.416H79.2001C79.1788 26.5467 78.9121 27.7094 78.4001 28.904C77.9094 30.0774 77.2588 31.0587 76.4481 31.848C74.8054 33.448 72.5228 34.248 69.6001 34.248ZM90.0796 34.248C87.6263 34.248 85.6743 33.4267 84.2236 31.784C82.7943 30.12 82.0796 28.04 82.0796 25.544C82.0796 23.0907 82.8049 21.032 84.2556 19.368C85.7276 17.6827 87.6156 16.84 89.9196 16.84C92.3516 16.84 94.2289 17.6934 95.5516 19.4C96.8743 21.0854 97.5356 23.336 97.5356 26.152H84.7356C84.8423 27.9014 85.3543 29.3307 86.2716 30.44C87.2103 31.528 88.4796 32.072 90.0796 32.072C92.5543 32.072 94.0796 30.9414 94.6556 28.68H97.1836C96.7996 30.4507 95.9889 31.8267 94.7516 32.808C93.5143 33.768 91.9569 34.248 90.0796 34.248ZM93.3756 20.296C92.5436 19.3574 91.3916 18.888 89.9196 18.888C88.4476 18.888 87.2743 19.3787 86.3996 20.36C85.5463 21.3414 85.0129 22.6214 84.7996 24.2H94.7516C94.6663 22.536 94.2076 21.2347 93.3756 20.296ZM103.622 17.256V20.008H103.686C104.219 19.1334 104.913 18.4294 105.766 17.896C106.619 17.3414 107.569 17.064 108.614 17.064C108.998 17.064 109.35 17.128 109.67 17.256V19.752H109.574C109.254 19.6454 108.87 19.592 108.422 19.592C107.099 19.592 105.969 20.0614 105.03 21C104.091 21.9174 103.622 23.1227 103.622 24.616V33.8H101.03V17.256H103.622ZM119.406 34.248C116.995 34.248 115.054 33.416 113.582 31.752C112.131 30.088 111.406 28.0187 111.406 25.544C111.406 23.0694 112.131 21 113.582 19.336C115.054 17.672 116.995 16.84 119.406 16.84C121.347 16.84 122.937 17.3627 124.174 18.408C125.411 19.432 126.179 20.8294 126.478 22.6H123.854C123.662 21.4694 123.182 20.584 122.414 19.944C121.646 19.304 120.643 18.984 119.406 18.984C117.699 18.984 116.377 19.6027 115.438 20.84C114.521 22.0774 114.062 23.6454 114.062 25.544C114.062 27.4427 114.521 29.0107 115.438 30.248C116.377 31.464 117.699 32.072 119.406 32.072C120.729 32.072 121.785 31.72 122.574 31.016C123.363 30.2907 123.811 29.2774 123.918 27.976H126.478C126.307 29.96 125.603 31.5067 124.366 32.616C123.129 33.704 121.475 34.248 119.406 34.248ZM129.984 33.8V10.92H132.576V33.8H129.984ZM144.232 34.248C141.779 34.248 139.827 33.4267 138.376 31.784C136.947 30.12 136.232 28.04 136.232 25.544C136.232 23.0907 136.957 21.032 138.408 19.368C139.88 17.6827 141.768 16.84 144.072 16.84C146.504 16.84 148.381 17.6934 149.704 19.4C151.027 21.0854 151.688 23.336 151.688 26.152H138.888C138.995 27.9014 139.507 29.3307 140.424 30.44C141.363 31.528 142.632 32.072 144.232 32.072C146.707 32.072 148.232 30.9414 148.808 28.68H151.336C150.952 30.4507 150.141 31.8267 148.904 32.808C147.667 33.768 146.109 34.248 144.232 34.248ZM147.528 20.296C146.696 19.3574 145.544 18.888 144.072 18.888C142.6 18.888 141.427 19.3787 140.552 20.36C139.699 21.3414 139.165 22.6214 138.952 24.2H148.904C148.819 22.536 148.36 21.2347 147.528 20.296ZM161.684 33.8V10.92H164.564V33.8H161.684ZM168.038 33.8L176.454 10.92H179.686L188.134 33.8H184.998L182.566 26.824H173.446L170.982 33.8H168.038ZM176.998 16.808L174.278 24.488H181.766L179.142 16.808L178.118 13.576H178.054C177.648 14.856 177.296 15.9334 176.998 16.808Z" fill="#061717"></path></svg>
