<svg xmlns="http://www.w3.org/2000/svg" width="48" height="48" viewBox="0 0 48 48" fill="none">
  <rect width="48" height="48" rx="24" fill="#0A0A0A"/>
  <g transform="translate(0.6, 0.6) scale(0.975)">
    <circle cx="23.8" cy="23.8" r="22.9186" stroke="#F8F8F4" stroke-width="1.76297"/>
    <path d="M27.3423 17.8564C27.3423 18.8853 27.1989 19.8392 26.9253 20.7051C22.5726 20.7707 19.7061 22.7744 18.6899 26.0146C18.649 26.015 18.608 26.0176 18.5669 26.0176C12.9137 26.0176 9.69678 22.8 9.69678 17.8564C9.69691 12.913 12.9138 9.69629 18.5669 9.69629C24.0778 9.69646 27.3422 12.9132 27.3423 17.8564ZM22.6108 17.8564C22.6108 14.7109 21.7833 13.9542 18.5669 13.9541C15.3501 13.9541 14.4273 14.7108 14.4272 17.8564C14.4272 21.0024 15.35 21.7598 18.5669 21.7598C21.7834 21.7597 22.6108 21.0022 22.6108 17.8564ZM35.9224 28.8623C35.9222 33.8056 32.658 37.0224 27.147 37.0225C21.494 37.0225 18.2771 33.8056 18.2769 28.8623C18.2769 27.8338 18.4185 26.8803 18.6899 26.0146C22.9864 25.9769 25.8941 23.9683 26.9253 20.7051C26.9988 20.704 27.0727 20.7012 27.147 20.7012C32.6582 20.7012 35.9224 23.9187 35.9224 28.8623ZM31.1919 28.8623C31.1919 25.7164 30.3638 24.959 27.147 24.959C23.9301 24.959 23.0073 25.7164 23.0073 28.8623C23.0074 32.0078 23.9303 32.7646 27.147 32.7646C30.3637 32.7646 31.1918 32.0078 31.1919 28.8623Z" fill="#F8F8F4"/>
  </g>
</svg>
